<?xml version="1.0" encoding="utf-8"?>
<!-- Generator: Adobe Illustrator 23.0.6, SVG Export Plug-In . SVG Version: 6.00 Build 0)  -->
<svg version="1.1" id="Layer_1" xmlns="http://www.w3.org/2000/svg" xmlns:xlink="http://www.w3.org/1999/xlink" x="0px" y="0px"
	 viewBox="0 0 240 240" style="enable-background:new 0 0 240 240;" xml:space="preserve">
<style type="text/css">
	.st0{fill:none;}
	.st1{fill:#3896AB;}
</style>
<polyline class="st0" points="240,0 240,240 0,240 "/>
<g>
	<path class="st1" d="M43.8,141.1l43.6-83l16.1,30.2c0,0,28.6-53.6,32.3-60.5c3.3,6.2,46.2,87.6,59.8,113.3h8.2l0,0l-68-128.8
		l-32.3,60.5L87.4,42.5l-51.9,98.6l0,0H43.8z"/>
	<polygon class="st1" points="38.5,156.8 46.4,156.8 48,173.9 48.1,173.9 57.4,156.8 65.3,156.8 60.3,180.6 55.2,180.6 59.7,160.9 
		59.6,160.9 48.9,180.6 44.3,180.6 42.4,160.9 42.4,160.9 38,180.6 33.5,180.6 	"/>
	<path class="st1" d="M81.7,178.1c-0.2,1.1-0.4,2-0.4,2.5h-4.5l0.3-1.7h-0.1c-1.3,1.2-3,2.1-5,2.1c-3.4,0-5.7-2.1-5.7-5.6
		c0-1.3,0.3-2.7,0.6-3.8l1.8-8.5h4.6l-1.7,8.3c-0.2,1.2-0.5,2.4-0.5,3.7c0,1.5,1,2.4,2.5,2.4c3.2,0,4.3-3,4.9-5.6l1.9-8.8h4.6
		L81.7,178.1z"/>
	<path class="st1" d="M99.4,166.8c-1.2-0.4-2.4-0.8-3.7-0.8c-1.4,0-3.1,0.4-3.1,1.8c0,2.2,5.9,3,5.9,7.3c0,4.6-4,5.9-7.9,5.9
		c-1.8,0-3.7-0.3-5.3-1.1l1-3.6c1.3,0.7,2.6,1.4,4.4,1.4c1.5,0,3.1-0.5,3.1-1.9c0-2.8-5.9-3.1-5.9-7.5c0-4.1,4-5.6,7.6-5.6
		c1.7,0,3.4,0.3,5,0.7L99.4,166.8z"/>
	<path class="st1" d="M105.5,175.8c0-3,3.7-3.3,5.9-3.3h1.6c-0.7,2.8-1.8,5.2-5.2,5.2C106.6,177.6,105.5,177,105.5,175.8
		 M111.8,180.6h3.8c0.4-3.3,2.1-10.2,2.1-12.5c0-4.1-3.3-5.4-6.8-5.4c-2,0-4,0.4-6,1.1l-0.6,3.6c1.8-0.9,3.7-1.4,5.7-1.4
		c1.6,0,3.5,0.5,3.5,2.3c0,0.5,0,1-0.1,1.5h-1.6c-4.3,0-10.7,0.4-10.7,6.2c0,3.2,2.2,5,5.4,5c2.5,0,4.1-1.1,5.6-3.1h0.1L111.8,180.6
		z"/>
	<polygon class="st1" points="125.4,155.1 130,155.1 124.6,180.6 120,180.6 	"/>
	<path class="st1" d="M133.8,175.8c0-3,3.7-3.3,5.9-3.3h1.6c-0.7,2.8-1.8,5.2-5.2,5.2C135,177.6,133.8,177,133.8,175.8 M140.1,180.6
		h3.8c0.4-3.3,2.1-10.2,2.1-12.5c0-4.1-3.3-5.4-6.8-5.4c-2,0-4,0.4-6,1.1l-0.6,3.6c1.8-0.9,3.7-1.4,5.7-1.4c1.6,0,3.5,0.5,3.5,2.3
		c0,0.5,0,1-0.1,1.5h-1.6c-4.3,0-10.7,0.4-10.7,6.2c0,3.2,2.2,5,5.4,5c2.5,0,4.1-1.1,5.6-3.1h0.1L140.1,180.6z"/>
	<path class="st1" d="M164.6,159.6c-1.5-0.7-3.1-1.2-4.8-1.2c-2.6,0-5.7,1.2-5.7,4.4c0,4.1,8.7,4.6,8.7,10.7c0,4.8-4.4,7.4-8.7,7.4
		c-3.1,0-4.9-0.7-6-1.3l0.7-2.2c1.4,1,3.4,1.5,5.1,1.5c3.2,0,6.6-1.4,6.6-5.1c0-4.9-8.7-5.3-8.7-10.8c0-4.6,3.8-6.6,8-6.6
		c2,0,3.8,0.3,5.5,1.1L164.6,159.6z"/>
	<path class="st1" d="M168.4,173.8c0-4.4,2.2-9.1,7-9.1c3.4,0,4.8,2.4,4.8,5.6c0,4.1-2.5,8.8-7,8.8
		C170.2,179.1,168.4,176.8,168.4,173.8 M166,173.4c0,4.3,2.7,7.5,6.9,7.5c6,0,9.6-4.9,9.6-10.7c0-4.5-2.5-7.4-6.9-7.4
		C169.8,162.8,166,167.6,166,173.4"/>
	<path class="st1" d="M201.6,165.1h4.5l0.4-1.8H202l1.1-4.7l-2.4,0.8l-0.8,3.9h-7.7l0.3-1.3c0.6-2.8,1.2-5.4,3.7-5.4
		c1,0,1.6,0.3,1.7,0.3l0.5-1.8c-0.8-0.3-1.6-0.4-2.4-0.4c-4,0-5.1,3.8-5.7,6.8l-0.4,1.7h-3.7l-0.4,1.8h3.7l-3.3,15.5h2.2l3.3-15.5
		h7.7l-1.7,7.7c-0.2,0.7-0.8,3.5-0.8,5c0,1.9,1.4,3.2,3.8,3.2c0.9,0,1.5-0.2,2.2-0.5l0.2-1.8c-0.6,0.3-1.2,0.5-1.8,0.5
		c-1.3,0-2-0.7-2-2.1c0-1.1,0.3-2.2,0.5-3.4L201.6,165.1z"/>
	<path class="st1" d="M98.8,97.6c0-3.1,17.2-6.8,41.4-8.8v-0.5c-32.4,0.8-67.7,4.7-67.7,10.4c0,7.5,51.8,9.3,51.8,19.3
		c0,5.7-21.5,15.3-69.3,31h108.8c8.5-8.1,13.2-16.8,13.2-23.2C176.9,101.9,98.8,103.3,98.8,97.6"/>
	<path class="st1" d="M169.5,206c0-1.4-0.6-2.4-1.8-2.9c-0.8-0.4-2-0.5-3.6-0.5h-2.3v7h2C167.5,209.6,169.5,208.4,169.5,206"/>
	<path class="st1" d="M144.4,202.6c-0.2,0.7-0.8,2.4-1.8,5.1l-2.4,6.2h8.6l-2.5-6.3C145.8,206.5,145.1,204.8,144.4,202.6"/>
	<path class="st1" d="M75.8,202.1c-1.4,0-2.4,0.8-3.2,2.3c-0.8,1.6-1.1,3.8-1.1,6.7c0,6.1,1.5,9.2,4.4,9.2c2.9,0,4.3-3,4.3-9.1
		C80.3,205.1,78.8,202.1,75.8,202.1"/>
	<path class="st1" d="M33.5,230.3h172.6v-39.5H33.5V230.3z M64.8,222.4H50.4V219c7-5.9,10.5-10.3,10.5-13.2c0-1.1-0.4-1.9-1.3-2.6
		c-0.8-0.7-1.9-1-3.2-1c-1.6,0-3.3,0.6-5.1,1.7l-0.3-2.9c2.2-0.9,4.2-1.4,6-1.4c2.2,0,4,0.6,5.3,1.7c1.4,1.2,2,2.6,2,4.5
		c0,1.4-0.4,2.9-1.3,4.4c-0.9,1.5-2.4,3.3-4.5,5.5c-1.8,1.8-3.4,3.3-4.9,4.3c0.5-0.1,1.3-0.2,2.4-0.2h8.8V222.4z M75.9,222.8
		c-2.9,0-5-1.4-6.2-4.1c-0.9-2-1.4-4.6-1.4-7.8c0-3.2,0.5-5.7,1.5-7.7c1.3-2.6,3.4-3.9,6.2-3.9c5.1,0,7.7,4,7.7,11.9
		C83.6,219,81,222.8,75.9,222.8 M106.7,212.8v9.6h-3.2v-9.5l-8.9-13.1h4l5.6,8.5c0.5,0.7,0.8,1.3,1,1.7c0.1-0.2,0.4-0.8,0.9-1.6
		l5.7-8.6h3.8L106.7,212.8z M131.4,222.4h-12.8v-22.6h12.6v2.8h-9.3v6.6h8.7v2.8h-8.7v7.6h9.6V222.4z M152,222.4l-2.2-5.7h-10.6
		l-2.2,5.7h-3.5l9.3-22.6h3.4l9.4,22.6H152z M170.9,222.4l-2.9-6.8c-0.6-1.4-1.2-2.3-1.7-2.7c-0.5-0.4-1.4-0.6-2.7-0.6h-1.9v10.1
		h-3.2v-22.6h5.4c2.2,0,3.9,0.2,5.1,0.6c1.1,0.4,2,1.1,2.7,2c0.7,1,1,2.1,1,3.3c0,1.4-0.4,2.6-1.3,3.5c-0.9,0.9-2,1.5-3.5,1.7
		c0.7,0.4,1.3,0.7,1.6,1.1c0.4,0.4,0.8,1.1,1.2,2l3.8,8.2H170.9z M187.9,221c-1.4,1.2-3.3,1.9-5.6,1.9c-1.8,0-3.5-0.3-5.1-0.9l0.3-3
		c1.6,0.8,3.1,1.2,4.4,1.2c1.4,0,2.5-0.3,3.4-1c0.8-0.7,1.3-1.6,1.3-2.8c0-1.4-0.8-2.5-2.5-3.5c-1.6-0.8-3.1-1.7-4.7-2.5
		c-1.7-1.2-2.5-2.7-2.5-4.7c0-1.9,0.7-3.3,2-4.5c1.3-1.1,3-1.7,5.1-1.7c1.8,0,3.4,0.3,4.9,0.8l-0.4,2.8c-1.6-0.6-3-0.9-4.2-0.9
		c-1.2,0-2.2,0.3-2.9,0.8c-0.7,0.6-1.1,1.3-1.1,2.3c0,1.2,0.9,2.3,2.6,3.3c1.6,0.9,3.2,1.8,4.7,2.7c1.7,1.3,2.6,2.9,2.6,4.8
		C190,218.1,189.3,219.7,187.9,221"/>
</g>
</svg>
